<?xml version="1.0" standalone="no"?>
<!DOCTYPE svg PUBLIC "-//W3C//DTD SVG 20010904//EN"
 "http://www.w3.org/TR/2001/REC-SVG-20010904/DTD/svg10.dtd">
<svg version="1.0" xmlns="http://www.w3.org/2000/svg"
 width="40.000000pt" height="40.000000pt" viewBox="0 0 40.000000 40.000000"
 preserveAspectRatio="xMidYMid meet">

<g transform="translate(0.000000,40.000000) scale(0.100000,-0.100000)"
fill="#DC3E22" stroke="none">
<path d="M22 376 c-47 -61 -11 -136 66 -136 25 0 45 7 55 18 24 26 21 32 -12
32 -40 0 -69 28 -79 74 l-8 40 -22 -28z m55 -83 c9 -7 28 -13 41 -13 21 0 22
-2 12 -15 -19 -23 -68 -18 -95 10 -28 27 -30 42 -13 80 l11 25 13 -37 c7 -21
21 -43 31 -50z"/>
<path d="M127 334 c-39 -21 -28 -28 12 -8 53 26 118 14 158 -30 33 -36 44 -64
21 -50 -7 4 -4 -2 6 -14 26 -30 36 -27 35 11 0 17 -3 26 -6 19 -3 -9 -12 -3
-24 17 -39 65 -136 91 -202 55z"/>
<path d="M40 194 c-12 -32 -13 -44 -1 -25 7 11 13 6 24 -20 19 -46 71 -89 105
-88 l27 1 -30 9 c-36 11 -55 26 -78 59 -19 27 -22 44 -7 35 13 -8 13 -2 -2 30
-14 32 -26 32 -38 -1z"/>
<path d="M292 200 c0 -14 2 -19 5 -12 2 6 2 18 0 25 -3 6 -5 1 -5 -13z"/>
<path d="M245 180 c3 -5 8 -10 11 -10 2 0 4 5 4 10 0 6 -5 10 -11 10 -5 0 -7
-4 -4 -10z"/>
<path d="M215 150 c3 -5 8 -10 11 -10 2 0 4 5 4 10 0 6 -5 10 -11 10 -5 0 -7
-4 -4 -10z"/>
<path d="M254 135 c-15 -23 -15 -27 0 -50 29 -44 87 -25 85 28 l-1 32 -7 -29
c-8 -38 -34 -55 -56 -36 -22 18 -15 52 15 67 24 12 24 13 3 13 -13 0 -29 -11
-39 -25z"/>
<path d="M355 150 c-3 -5 -2 -10 4 -10 5 0 13 5 16 10 3 6 2 10 -4 10 -5 0
-13 -4 -16 -10z"/>
<path d="M190 110 c0 -5 7 -10 15 -10 8 0 15 5 15 10 0 6 -7 10 -15 10 -8 0
-15 -4 -15 -10z"/>
<path d="M370 110 c0 -5 4 -10 9 -10 6 0 13 5 16 10 3 6 -1 10 -9 10 -9 0 -16
-4 -16 -10z"/>
<path d="M215 70 c-3 -5 -1 -10 4 -10 6 0 11 5 11 10 0 6 -2 10 -4 10 -3 0 -8
-4 -11 -10z"/>
<path d="M355 70 c3 -5 8 -10 11 -10 2 0 4 5 4 10 0 6 -5 10 -11 10 -5 0 -7
-4 -4 -10z"/>
<path d="M245 40 c-3 -5 -1 -10 4 -10 6 0 11 5 11 10 0 6 -2 10 -4 10 -3 0 -8
-4 -11 -10z"/>
<path d="M291 24 c0 -11 3 -14 6 -6 3 7 2 16 -1 19 -3 4 -6 -2 -5 -13z"/>
</g>
</svg>
